<?xml version="1.0" standalone="no"?>
<!DOCTYPE svg PUBLIC "-//W3C//DTD SVG 20010904//EN"
 "http://www.w3.org/TR/2001/REC-SVG-20010904/DTD/svg10.dtd">
<svg version="1.0" xmlns="http://www.w3.org/2000/svg"
 width="288.000000pt" height="288.000000pt" viewBox="0 0 288.000000 288.000000"
 preserveAspectRatio="xMidYMid meet">

<g transform="translate(0.000000,288.000000) scale(1.00000,-0.100000)"
fill="#000000" stroke="none">
<path d="M430 1440 l0 -230 220 0 220 0 0 230 0 230 -220 0 -220 0 0 -230z
m230 100 c0 -5 16 -10 35 -10 19 0 35 -4 35 -9 0 -6 -16 -7 -35 -4 l-35 6 0
-46 0 -46 63 -3 62 -3 -22 -22 c-28 -28 -57 -29 -83 -3 l-20 20 0 -30 c0 -26
4 -30 28 -30 37 0 72 -10 72 -21 0 -5 -52 -9 -115 -9 -63 0 -115 4 -115 9 0
11 36 21 78 21 l32 0 0 80 0 80 -31 0 c-16 0 -28 -4 -25 -8 3 -5 -1 -9 -8 -9
-8 0 -12 6 -9 14 3 7 20 13 39 13 19 0 34 5 34 10 0 6 5 10 10 10 6 0 10 -4
10 -10z m-126 -101 c-4 -8 9 -10 45 -8 28 2 51 0 51 -5 0 -16 -33 -46 -50 -46
-28 0 -64 34 -57 53 4 10 9 17 12 17 4 0 3 -5 -1 -11z"/>
<path d="M920 1440 l0 -230 765 0 765 0 0 230 0 230 -765 0 -765 0 0 -230z
m198 9 c-4 -74 -15 -91 -53 -87 -11 2 -19 8 -17 13 2 6 10 9 19 7 24 -5 33 17
33 81 0 35 4 57 11 57 8 0 10 -23 7 -71z m52 18 c0 -64 19 -98 47 -81 14 8 19
26 21 73 4 77 22 80 22 3 0 -66 -19 -102 -55 -102 -36 0 -55 36 -55 102 0 32
4 58 10 58 6 0 10 -24 10 -53z m197 36 c3 -8 -6 -11 -23 -10 -40 3 -40 -18 1
-41 38 -23 45 -50 19 -76 -24 -24 -74 -17 -74 10 0 11 4 12 19 3 22 -14 51 -6
51 15 0 8 -16 23 -35 35 -37 22 -41 31 -24 62 11 22 59 23 66 2z m133 7 c0 -5
-9 -10 -20 -10 -18 0 -20 -7 -20 -70 0 -40 -4 -70 -10 -70 -6 0 -10 30 -10 70
0 68 -1 70 -25 70 -14 0 -25 5 -25 10 0 6 25 10 55 10 30 0 55 -4 55 -10z m50
-70 c0 -47 -4 -80 -10 -80 -6 0 -10 33 -10 80 0 47 4 80 10 80 6 0 10 -33 10
-80z m151 70 c10 -6 19 -15 19 -21 0 -6 -7 -6 -19 1 -44 23 -91 -2 -91 -48 0
-50 46 -76 91 -52 12 7 19 7 19 1 0 -13 -33 -31 -58 -31 -11 0 -31 9 -46 21
-20 16 -26 29 -26 59 0 61 59 97 111 70z m129 0 c0 -5 -13 -10 -30 -10 -20 0
-30 -5 -30 -15 0 -9 9 -15 25 -15 14 0 25 -4 25 -10 0 -5 -11 -10 -25 -10 -22
0 -25 -4 -25 -35 0 -32 2 -35 30 -35 17 0 30 -4 30 -10 0 -5 -18 -10 -40 -10
l-40 0 0 80 0 80 40 0 c22 0 40 -4 40 -10z m50 -60 l0 -70 30 0 c17 0 30 -4
30 -10 0 -5 -18 -10 -40 -10 l-40 0 0 80 c0 47 4 80 10 80 6 0 10 -30 10 -70z
m110 -10 c0 -47 -4 -80 -10 -80 -6 0 -10 33 -10 80 0 47 4 80 10 80 6 0 10
-33 10 -80z m160 23 c0 31 5 57 10 57 6 0 10 -34 10 -82 l0 -82 -55 54 -55 54
0 -52 c0 -29 -4 -52 -10 -52 -6 0 -10 33 -10 80 l0 81 55 -58 54 -58 1 58z
m80 25 l0 -32 29 34 c16 19 33 32 37 27 4 -4 -2 -17 -14 -30 -12 -13 -22 -26
-22 -30 0 -4 14 -26 30 -49 17 -23 27 -44 24 -47 -6 -6 -35 25 -66 69 l-17 25
0 -47 c-1 -27 -5 -48 -11 -48 -6 0 -10 33 -10 80 0 47 4 80 10 80 6 0 10 -14
10 -32z"/>
</g>
</svg>
